<svg viewBox="0 0 5.58 9.4" xmlns="http://www.w3.org/2000/svg"><path d="m0 2.8a.45.45 0 0 1 .15-.35l2.25-2.26a.55.55 0 0 1 .39-.19.55.55 0 0 1 .39.19l2.26 2.26a.43.43 0 0 1 .14.35.45.45 0 0 1 -.13.34.5.5 0 0 1 -.35.14.53.53 0 0 1 -.36-.15l-.64-.65-.86-1v.52.73a.51.51 0 0 1 -.13.37.48.48 0 0 1 -.36.13.48.48 0 0 1 -.35-.13.51.51 0 0 1 -.13-.37v-.73-.52l-.89 1-.61.63a.53.53 0 0 1 -.36.15.48.48 0 0 1 -.35-.14.46.46 0 0 1 -.06-.32zm0 3.8a.46.46 0 0 1 .14-.34.48.48 0 0 1 .35-.14.5.5 0 0 1 .36.16l.66.66.84 1v-.51-.74a.46.46 0 0 1 .48-.5.49.49 0 0 1 .36.14.48.48 0 0 1 .13.36v.74.5l.83-.95.67-.66a.5.5 0 0 1 .71 0 .52.52 0 0 1 0 .7l-2.35 2.19a.55.55 0 0 1 -.39.19.55.55 0 0 1 -.39-.19l-2.25-2.21a.49.49 0 0 1 -.15-.4zm2.29-2.22a.48.48 0 0 1 .14-.38.49.49 0 0 1 .36-.15.5.5 0 0 1 .37.15.48.48 0 0 1 .14.35v.65a.51.51 0 0 1 -.14.36.53.53 0 0 1 -.37.14.52.52 0 0 1 -.36-.14.51.51 0 0 1 -.14-.36z" fill="blue"/></svg>